<svg id="Camada_1" data-name="Camada 1" xmlns="http://www.w3.org/2000/svg" width="511.2" height="354.37397" viewBox="0 0 511.2 354.37397"><title>logot01</title><path d="M20.4,371.68a21.42656,21.42656,0,0,0,.84306-3.16292,109.3261,109.3261,0,0,1,10.015-35.11444c14.90131-31.2015,38.04566-54.39749,68.67242-70.23349,17.86864-9.23925,36.81123-15.441,56.43144-19.66348a103.3036,103.3036,0,0,1,23.05194-2.73829,35.52217,35.52217,0,0,1,7.58305.99655c3.71949.87126,4.86444,3.13775,3.813,6.847a9.79208,9.79208,0,0,1-3.56009,5.28122,27.01179,27.01179,0,0,1-12.47362,5.26035c.55232-.49809,1.10655-.99407,1.65656-1.49471a9.16039,9.16039,0,0,0,2.8808-4.3318c.84931-3.077-.12865-5.05508-3.17028-5.88715a31.1082,31.1082,0,0,0-5.88547-1.04551,72.79069,72.79069,0,0,0-21.189,1.93931c-18.25927,4.06108-35.8847,9.80508-52.1354,19.37395-18.975,11.173-35.07785,25.36787-47.21929,43.84521-7.93156,12.07054-13.90913,25.00048-16.58057,39.28869-2.05488,10.99057-2.97287,22.03989-.726,33.12463,1.98351,9.78556,5.97536,18.51726,13.55424,25.34651a29.832,29.832,0,0,0,17.32292,7.45368,69.40894,69.40894,0,0,0,42.899-9.06249,126.36409,126.36409,0,0,0,29.16879-23.22231c10.81-11.45505,19.92094-24.16922,28.31766-37.44818,10.99689-17.39094,20.51568-35.59766,29.98523-53.83528,16.3192-31.42954,32.547-62.907,48.99126-94.271a547.21657,547.21657,0,0,1,32.118-53.98434,298.9479,298.9479,0,0,1,22.11425-28.67056c.4684-.53542.91271-1.09188,1.46215-1.75128a3.62937,3.62937,0,0,0-.849-.49574c-15.051-3.3528-30.112-6.66085-45.15717-10.03944-20.75883-4.66167-41.76541-7.26755-63.041-6.74511-15.40187.37821-30.31357,3.47443-44.21854,10.47136a66.32243,66.32243,0,0,0-23.89973,19.9685,46.76052,46.76052,0,0,0-9.33511,23.31466c-1.23528,12.03689,3.58284,23.6113,17.42942,28.68323a44.44757,44.44757,0,0,0,20.32385,2.17909c18.48914-1.9771,34.68186-9.57021,49.50268-20.43366a40.79357,40.79357,0,0,0,9.49119-9.43527,11.93008,11.93008,0,0,0,2.489-6.14258c.20583-3.496-1.53345-5.44432-5.0285-5.58a14.84122,14.84122,0,0,1-3.64006-.37181c.79913-.58835,1.55716-1.24555,2.40524-1.75191a20.08789,20.08789,0,0,1,7.58573-2.83093,9.18454,9.18454,0,0,1,8.95223,4.38885,6.43665,6.43665,0,0,1,.22768,6.23,44.83054,44.83054,0,0,1-4.21,6.931,48.81991,48.81991,0,0,1-9.98359,9.29109A119.29239,119.29239,0,0,1,155.32,184.77955a53.33861,53.33861,0,0,1-26.31146-1.698c-12.12406-4.04681-19.04483-13.48327-19.39976-26.2778-.28642-10.32436,3.09357-19.49768,8.872-27.85014,8.29056-11.9836,19.46875-20.39746,32.83334-26.00441a110.51362,110.51362,0,0,1,31.53907-7.79067c16.944-1.76615,33.85381-1.03835,50.77731.38338,21.61779,1.81608,42.96629,5.45116,64.30124,9.20729a59.61284,59.61284,0,0,1,5.86441,1.21911,3.6045,3.6045,0,0,0,4.01918-1.169c4.48193-4.67752,9.06985-9.25343,13.61529-13.87016A57.00853,57.00853,0,0,1,338.3018,78.8363a30.00759,30.00759,0,0,1,6.3416-2.09458c2.86963-.59631,4.86105,1.10192,4.95389,4.03533a13.0782,13.0782,0,0,1-.47293,3.54325A38.29413,38.29413,0,0,1,341.689,97.98368c.3963-1.02159.59886-1.533.79322-2.04741a20.7935,20.7935,0,0,0,.742-2.02326c.95256-3.62494-1.03383-6.24885-4.79575-6.20773a15.59482,15.59482,0,0,0-3.7684.62685A31.51374,31.51374,0,0,0,321.98625,94.902c-4.11489,3.55354-8.06631,7.29649-12.08188,10.96466a4.3181,4.3181,0,0,0-.48115.71692,13.257,13.257,0,0,0,1.58376.50268c15.88275,2.88145,31.72717,6.00431,47.66306,8.55525a247.13932,247.13932,0,0,0,56.67305,2.67308,256.16165,256.16165,0,0,0,60.60609-11.5977,147.9613,147.9613,0,0,0,28.78854-12.42368,77.37906,77.37906,0,0,0,13.38062-9.69013,17.46318,17.46318,0,0,0,3.35279-4.02609c1.55485-2.66249.39451-4.894-2.64047-5.48862-.98929-.19384-1.99429-.30808-3.426-.52423,3.98238-2.6983,7.75752-4.384,12.24058-3.85906A5.45147,5.45147,0,0,1,531.6,72.64v2.4a22.69172,22.69172,0,0,1-5.0874,6.283c-7.17821,6.83672-15.48038,12.07412-24.01239,17.02215-13.21,7.661-27.5625,12.24918-42.229,16.02793a333.236,333.236,0,0,1-47.14183,8.54739,310.42952,310.42952,0,0,1-37.85174,1.57807c-10.00345-.13585-19.99052-.48607-29.93555-1.56636a294.47573,294.47573,0,0,1-34.00093-5.88681c-2.1024-.482-4.22223-.91444-6.2857-1.53137a2.96516,2.96516,0,0,0-3.6786,1.24982c-4.17718,5.65807-8.7332,11.06043-12.59687,16.92139-10.43894,15.83522-19.38814,32.55428-28.45588,49.19347-10.29515,18.89143-19.36052,38.39445-28.72473,57.75218A858.33479,858.33479,0,0,1,178.808,335.24436,332.0018,332.0018,0,0,1,138.9184,385.864c-6.63395,6.83063-13.43747,13.50314-21.11381,19.18286a103.0818,103.0818,0,0,1-44.515,19.16259,48.41855,48.41855,0,0,1-25.97824-2.37586c-11.4371-4.43616-18.7286-13.03213-23.05918-24.28374a53.19633,53.19633,0,0,1-2.98852-12.81263A27.41182,27.41182,0,0,0,20.4,381.28Z" transform="translate(-20.4 -70.60952)"/></svg>